<svg width="41" height="41" viewBox="0 0 41 41" fill="none" xmlns="http://www.w3.org/2000/svg">
<g id="fluent-emoji-high-contrast:money-bag">
<g id="Group">
<path id="Vector" d="M20.2949 24.7858H20.3846C22.3065 24.837 23.844 26.4002 23.844 28.322C23.844 29.962 22.7293 31.333 21.2174 31.743V33.178C21.2174 33.6905 20.8074 34.1005 20.2949 34.1005C19.7824 34.1005 19.3724 33.6905 19.3724 33.178V31.743C18.6197 31.5404 17.9546 31.0955 17.4799 30.4772C17.0052 29.8589 16.7472 29.1016 16.7458 28.322C16.7458 27.8095 17.1558 27.3995 17.6683 27.3995C18.1808 27.3995 18.5909 27.8095 18.5909 28.322C18.5909 29.2702 19.3468 30.0261 20.2821 30.0261C21.2174 30.0261 21.9862 29.2573 21.9862 28.322C21.9862 27.3867 21.2174 26.618 20.2821 26.618H20.1924C19.2707 26.593 18.3951 26.2096 17.7515 25.5493C17.1079 24.889 16.7472 24.0038 16.7458 23.0817C16.7458 21.4417 17.8605 20.0708 19.3724 19.6608V18.2258C19.3724 17.7133 19.7824 17.3033 20.2949 17.3033C20.8074 17.3033 21.2174 17.7133 21.2174 18.2258V19.6608C22.7293 20.0708 23.844 21.4417 23.844 23.0817C23.844 23.5942 23.434 24.0042 22.9215 24.0042C22.409 24.0042 21.999 23.5942 21.999 23.0817C21.999 22.1464 21.2302 21.3777 20.2949 21.3777C19.3596 21.3777 18.5909 22.1464 18.5909 23.0817C18.5909 24.017 19.3596 24.7858 20.2949 24.7858Z" fill="#27B230"/>
<path id="Vector_2" d="M13.4941 6.53437L17.0637 10.7112L16.678 11.1417C9.33134 12.7894 3.84375 19.3507 3.84375 27.1945C3.84375 34.0902 9.44025 39.6867 16.3359 39.6867H24.2413C31.1369 39.6867 36.7334 34.0915 36.7334 27.1958C36.7463 19.3507 31.2587 12.7894 23.912 11.1417C23.9421 10.871 23.8932 10.5973 23.771 10.3538L26.8076 6.87774L27.0036 6.57537C27.2325 6.0761 27.2911 5.51546 27.1703 4.97967C27.0495 4.44388 26.756 3.96261 26.335 3.60988C25.914 3.25715 25.3888 3.05249 24.8401 3.02738C24.2914 3.00227 23.7497 3.1581 23.2983 3.4709L22.2182 2.18965C21.9759 1.91851 21.6792 1.70147 21.3474 1.55267C21.0156 1.40388 20.6562 1.32666 20.2926 1.32605C19.929 1.32545 19.5693 1.40147 19.237 1.54917C18.9048 1.69686 18.6073 1.91291 18.3642 2.18324L17.2328 3.44656C16.7825 3.12725 16.2396 2.96521 15.6879 2.9855C15.1363 3.00579 14.6067 3.20728 14.181 3.5588C13.7554 3.91033 13.4575 4.3923 13.3333 4.93017C13.2091 5.46804 13.2657 6.03184 13.4941 6.53437ZM18.3616 8.3089L16.1886 5.79765C16.6935 6.04046 17.2646 6.1093 17.8128 5.99341C18.3609 5.87752 18.8553 5.58343 19.2188 5.15702L20.2437 3.82709L21.3815 5.17496C21.7362 5.5875 22.2148 5.87436 22.7458 5.99281C23.2769 6.11125 23.832 6.05493 24.3284 5.83224L22.1656 8.3089H18.3616ZM6.40625 27.1945C6.40625 19.5224 12.6229 13.3058 20.295 13.3058C27.9671 13.3058 34.1838 19.5224 34.1709 27.192V27.1945C34.1699 29.8277 33.1234 32.3528 31.2615 34.2147C29.3995 36.0767 26.8745 37.1232 24.2413 37.1242H16.3359C13.7027 37.1232 11.1777 36.0767 9.31571 34.2147C7.45376 32.3528 6.40727 29.8277 6.40625 27.1945Z" fill="#27B230"/>
</g>
</g>
</svg>
