<svg width="40" height="40" viewBox="0 0 40 40" fill="none" xmlns="http://www.w3.org/2000/svg">
<path d="M20 36.6666C17.8113 36.6666 15.644 36.2355 13.6219 35.398C11.5998 34.5604 9.76251 33.3327 8.21487 31.7851C5.08926 28.6595 3.33331 24.4203 3.33331 20C3.33331 15.5797 5.08926 11.3405 8.21487 8.21487C11.3405 5.08926 15.5797 3.33331 20 3.33331C29.1666 3.33331 36.6666 9.99998 36.6666 18.3333C36.6666 20.9855 35.6131 23.529 33.7377 25.4044C31.8624 27.2797 29.3188 28.3333 26.6666 28.3333H23.6666C23.1666 28.3333 22.8333 28.6666 22.8333 29.1666C22.8333 29.3333 23 29.5 23 29.6666C23.6666 30.5 24 31.5 24 32.5C24.1666 34.8333 22.3333 36.6666 20 36.6666ZM20 6.66665C16.4638 6.66665 13.0724 8.0714 10.5719 10.5719C8.0714 13.0724 6.66665 16.4638 6.66665 20C6.66665 23.5362 8.0714 26.9276 10.5719 29.4281C13.0724 31.9286 16.4638 33.3333 20 33.3333C20.5 33.3333 20.8333 33 20.8333 32.5C20.8333 32.1666 20.6666 32 20.6666 31.8333C20 31 19.6666 30.1666 19.6666 29.1666C19.6666 26.8333 21.5 25 23.8333 25H26.6666C28.4348 25 30.1304 24.2976 31.3807 23.0474C32.6309 21.7971 33.3333 20.1014 33.3333 18.3333C33.3333 11.8333 27.3333 6.66665 20 6.66665ZM10.8333 16.6666C12.1666 16.6666 13.3333 17.8333 13.3333 19.1666C13.3333 20.5 12.1666 21.6666 10.8333 21.6666C9.49998 21.6666 8.33331 20.5 8.33331 19.1666C8.33331 17.8333 9.49998 16.6666 10.8333 16.6666ZM15.8333 9.99998C17.1666 9.99998 18.3333 11.1666 18.3333 12.5C18.3333 13.8333 17.1666 15 15.8333 15C14.5 15 13.3333 13.8333 13.3333 12.5C13.3333 11.1666 14.5 9.99998 15.8333 9.99998ZM24.1666 9.99998C25.5 9.99998 26.6666 11.1666 26.6666 12.5C26.6666 13.8333 25.5 15 24.1666 15C22.8333 15 21.6666 13.8333 21.6666 12.5C21.6666 11.1666 22.8333 9.99998 24.1666 9.99998ZM29.1666 16.6666C30.5 16.6666 31.6666 17.8333 31.6666 19.1666C31.6666 20.5 30.5 21.6666 29.1666 21.6666C27.8333 21.6666 26.6666 20.5 26.6666 19.1666C26.6666 17.8333 27.8333 16.6666 29.1666 16.6666Z" fill="#0036A6"/>
</svg>
