<svg width="145" height="38" viewBox="0 0 145 38" fill="none" xmlns="http://www.w3.org/2000/svg">
<rect width="29" height="29" fill="#3C77C3"/>
<path d="M8.274 14.718C8.274 13.494 8.55 12.396 9.102 11.424C9.654 10.44 10.404 9.672 11.352 9.12C12.312 8.568 13.374 8.292 14.538 8.292C15.906 8.292 17.1 8.622 18.12 9.282C19.14 9.942 19.884 10.878 20.352 12.09H18.39C18.042 11.334 17.538 10.752 16.878 10.344C16.23 9.936 15.45 9.732 14.538 9.732C13.662 9.732 12.876 9.936 12.18 10.344C11.484 10.752 10.938 11.334 10.542 12.09C10.146 12.834 9.948 13.71 9.948 14.718C9.948 15.714 10.146 16.59 10.542 17.346C10.938 18.09 11.484 18.666 12.18 19.074C12.876 19.482 13.662 19.686 14.538 19.686C15.45 19.686 16.23 19.488 16.878 19.092C17.538 18.684 18.042 18.102 18.39 17.346H20.352C19.884 18.546 19.14 19.476 18.12 20.136C17.1 20.784 15.906 21.108 14.538 21.108C13.374 21.108 12.312 20.838 11.352 20.298C10.404 19.746 9.654 18.984 9.102 18.012C8.55 17.04 8.274 15.942 8.274 14.718Z" fill="white"/>
<rect width="29" height="29" transform="translate(29 9)" fill="#3C77C3"/>
<path d="M45.992 30L43.004 24.87H41.024V30H39.386V17.454H43.436C44.384 17.454 45.182 17.616 45.83 17.94C46.49 18.264 46.982 18.702 47.306 19.254C47.63 19.806 47.792 20.436 47.792 21.144C47.792 22.008 47.54 22.77 47.036 23.43C46.544 24.09 45.8 24.528 44.804 24.744L47.954 30H45.992ZM41.024 23.556H43.436C44.324 23.556 44.99 23.34 45.434 22.908C45.878 22.464 46.1 21.876 46.1 21.144C46.1 20.4 45.878 19.824 45.434 19.416C45.002 19.008 44.336 18.804 43.436 18.804H41.024V23.556Z" fill="white"/>
<rect width="29" height="29" transform="translate(58)" fill="#3C77C3"/>
<path d="M70.524 9.786V13.98H75.096V15.33H70.524V19.65H75.636V21H68.886V8.436H75.636V9.786H70.524Z" fill="white"/>
<rect width="29" height="29" transform="translate(87 9)" fill="#3C77C3"/>
<path d="M106.754 17.454L102.02 30H100.13L95.396 17.454H97.142L101.084 28.272L105.026 17.454H106.754Z" fill="white"/>
<rect width="29" height="29" transform="translate(116)" fill="#3C77C3"/>
<path d="M132.802 18.21H127.33L126.322 21H124.594L129.13 8.526H131.02L135.538 21H133.81L132.802 18.21ZM132.334 16.878L130.066 10.542L127.798 16.878H132.334Z" fill="white"/>
</svg>
