<svg width="41" height="41" viewBox="0 0 41 41" fill="none" xmlns="http://www.w3.org/2000/svg">
<g id="mage:light-bulb">
<g id="Group">
<path id="Vector" d="M29.4722 21.3371C28.987 25.3773 26.3408 26.9917 25.1979 28.1636C24.0534 29.3389 24.2584 29.573 24.3352 31.2967C24.3481 31.5099 24.3171 31.7236 24.2442 31.9244C24.1713 32.1252 24.0581 32.309 23.9115 32.4644C23.7649 32.6198 23.588 32.7436 23.3918 32.828C23.1955 32.9125 22.984 32.9559 22.7704 32.9555H18.2296C18.0161 32.9551 17.805 32.9112 17.609 32.8266C17.413 32.7419 17.2363 32.6181 17.0897 32.4629C16.9431 32.3077 16.8297 32.1242 16.7563 31.9237C16.683 31.7232 16.6513 31.5099 16.6631 31.2967C16.6631 29.6054 16.8203 29.2125 15.8021 28.1636C14.5038 26.8653 11.4493 25.0322 11.4493 19.9909C11.4415 18.7387 11.6932 17.4985 12.1885 16.3484C12.6838 15.1983 13.412 14.1632 14.3272 13.3085C15.2424 12.4538 16.3247 11.798 17.506 11.3823C18.6872 10.9667 19.9418 10.8003 21.1905 10.8935C22.4393 10.9868 23.6552 11.3378 24.7615 11.9243C25.8679 12.5108 26.8408 13.3201 27.6189 14.3013C28.397 15.2825 28.9633 16.4142 29.2823 17.6251C29.6013 18.8361 29.6659 20.0999 29.4722 21.3371Z" stroke="#B3C52C" stroke-width="1.5" stroke-linecap="round" stroke-linejoin="round"/>
<path id="Vector_2" d="M17.8692 32.8615V35.4445C17.8692 36.1501 18.2621 36.7292 18.7456 36.7292H22.2528C22.7396 36.7292 23.1308 36.1484 23.1308 35.4445V32.8615M19.1675 14.8557C18.1588 14.8561 17.1916 15.2572 16.4785 15.9706C15.7654 16.684 15.3648 17.6514 15.3648 18.6601M33.0255 20.336H36.1586M29.8719 10.0655L32.0945 7.84298M31.5803 29.0417L33.8028 31.2625M20.5 4.06073V6.59419M8.95168 7.84127L11.1588 10.0655M7.24335 31.2625L9.45051 29.0417M7.97452 20.336H4.84314" stroke="#B3C52C" stroke-width="1.5" stroke-linecap="round" stroke-linejoin="round"/>
</g>
</g>
</svg>
