<svg width="41" height="41" viewBox="0 0 41 41" fill="none" xmlns="http://www.w3.org/2000/svg">
<g id="ph:handshake-duotone">
<g id="Group">
<path id="Vector" opacity="0.2" d="M32.0312 24.3438L25.625 30.75L15.375 28.1875L6.40625 21.7812L11.6402 11.3118L20.5 8.96875L29.3598 11.3118L29.4047 11.5312H23.0625L15.7498 18.6246C15.6138 18.7604 15.5102 18.9252 15.4465 19.1065C15.3829 19.2879 15.3609 19.4812 15.3821 19.6723C15.4033 19.8633 15.4673 20.0471 15.5692 20.2101C15.6711 20.373 15.8083 20.511 15.9708 20.6137C18.7751 22.4059 22.582 22.2825 25.625 19.2188L32.0312 24.3438Z" fill="#360CBC"/>
<path id="Vector_2" d="M40.7276 17.2825L36.6404 9.10488C36.4899 8.80389 36.2815 8.53551 36.0272 8.31507C35.7729 8.09462 35.4777 7.92643 35.1584 7.82009C34.8391 7.71376 34.5019 7.67136 34.1662 7.69532C33.8305 7.71929 33.5029 7.80915 33.2019 7.95976L29.2188 9.95051L20.8282 7.73074C20.6129 7.67471 20.3869 7.67471 20.1716 7.73074L11.781 9.95051L7.79791 7.95976C7.49694 7.80915 7.16926 7.71929 6.83357 7.69532C6.49787 7.67136 6.16075 7.71376 5.84144 7.82009C5.52213 7.92643 5.2269 8.09462 4.9726 8.31507C4.7183 8.53551 4.50992 8.80389 4.35935 9.10488L0.272165 17.2809C0.121548 17.5818 0.0316909 17.9095 0.00772588 18.2452C-0.0162391 18.5809 0.0261571 18.918 0.132494 19.2373C0.23883 19.5566 0.407024 19.8519 0.627469 20.1062C0.847915 20.3605 1.11629 20.5688 1.41728 20.7194L5.7415 22.8831L14.6286 29.2301C14.7596 29.3232 14.9068 29.391 15.0626 29.4303L25.3126 31.9928C25.5273 32.0466 25.7522 32.044 25.9655 31.985C26.1788 31.9261 26.3732 31.8129 26.5298 31.6565L35.3496 22.8351L39.5809 20.7194C40.1884 20.4153 40.6502 19.8825 40.8649 19.238C41.0797 18.5935 41.0297 17.8901 40.726 17.2825H40.7276ZM31.9367 22.6269L26.4257 18.213C26.1788 18.0153 25.8675 17.9158 25.5517 17.9339C25.2359 17.9519 24.938 18.0861 24.7152 18.3107C21.8628 21.1839 18.6837 20.8203 16.6561 19.5391L23.5813 12.8125H28.6759L33.0337 21.5266L31.9367 22.6269ZM6.65119 10.25L9.92959 11.8868L5.83439 20.0628L2.5624 18.4276L6.65119 10.25ZM25.2293 29.3294L15.9226 27.0039L8.04295 21.3761L12.5273 12.4073L20.4999 10.2948L22.0694 10.7096L14.8624 17.7053L14.8496 17.7197C14.5783 17.991 14.3714 18.3197 14.2441 18.6817C14.1169 19.0436 14.0725 19.4295 14.1143 19.8109C14.1561 20.1923 14.283 20.5594 14.4857 20.8852C14.6884 21.211 14.9616 21.4871 15.2852 21.6932C18.578 23.796 22.5515 23.4549 25.681 20.8924L30.1093 24.4495L25.2293 29.3294ZM35.159 20.0612L31.0718 11.8932L34.3486 10.25L38.4374 18.4276L35.159 20.0612ZM21.1053 34.9028C21.0361 35.1798 20.8764 35.4256 20.6515 35.6015C20.4266 35.7773 20.1495 35.873 19.8641 35.8734C19.7588 35.8735 19.6539 35.8606 19.5518 35.835L12.8781 34.1661C12.722 34.1276 12.5747 34.0596 12.444 33.9659L8.22392 30.9518C7.96444 30.7481 7.79354 30.4521 7.74682 30.1255C7.7001 29.7989 7.78116 29.4669 7.97311 29.1986C8.16506 28.9303 8.45311 28.7463 8.77728 28.6851C9.10145 28.6238 9.43676 28.69 9.71338 28.8698L13.7349 31.743L20.1796 33.3509C20.5092 33.4334 20.7925 33.6434 20.9673 33.9347C21.1421 34.226 21.194 34.5748 21.1117 34.9045L21.1053 34.9028Z" fill="#360CBC"/>
</g>
</g>
</svg>
