<svg width="32" height="36" viewBox="0 0 32 36" fill="none" xmlns="http://www.w3.org/2000/svg">
<path d="M14.6119 14.3706L3.34658 0.959534L25.3945 9.58192L26.8991 23.1232L18.2188 30.4146L5.14053 26.5953L0.45316 3.39001L11.7184 16.801C11.4343 17.5829 11.4162 18.4366 11.6667 19.2298C11.9173 20.023 12.4226 20.7113 13.1042 21.1881C13.7859 21.6649 14.6058 21.9034 15.4368 21.8667C16.2679 21.8299 17.0635 21.52 17.7005 20.985C18.3374 20.45 18.78 19.7197 18.9596 18.9075C19.1393 18.0953 19.0458 17.2465 18.6939 16.4928C18.3419 15.7391 17.7511 15.1225 17.0131 14.7388C16.275 14.3551 15.431 14.2257 14.6119 14.3706ZM17.9874 33.0766L29.561 23.3546L31.9915 26.2481L20.4178 35.97L17.9874 33.0766Z" fill="#3E8000"/>
</svg>
