<svg width="38" height="39" viewBox="0 0 38 39" fill="none" xmlns="http://www.w3.org/2000/svg">
<path d="M3.75851 3.30688H4.93937V4.48775H3.75851V3.30688Z" fill="#4628A4"/>
<path d="M6.12024 3.30688H7.30111V4.48775H6.12024V3.30688Z" fill="#4628A4"/>
<path d="M8.48198 3.30688H9.66285V4.48775H8.48198V3.30688Z" fill="#4628A4"/>
<path d="M4.34894 18.0677H17.3385C17.4951 18.0677 17.6453 18.0055 17.756 17.8948C17.8667 17.784 17.9289 17.6338 17.9289 17.4773V8.03031C17.9289 7.87372 17.8667 7.72354 17.756 7.61281C17.6453 7.50209 17.4951 7.43988 17.3385 7.43988H4.34894C4.19235 7.43988 4.04217 7.50209 3.93144 7.61281C3.82071 7.72354 3.75851 7.87372 3.75851 8.03031V17.4773C3.75851 17.6338 3.82071 17.784 3.93144 17.8948C4.04217 18.0055 4.19235 18.0677 4.34894 18.0677ZM4.93937 8.62075H16.748V16.8868H4.93937V8.62075Z" fill="#4628A4"/>
<path d="M4.34894 29.286H17.3385C17.4951 29.286 17.6453 29.2238 17.756 29.113C17.8667 29.0023 17.9289 28.8521 17.9289 28.6955V19.839C17.9289 19.6824 17.8667 19.5323 17.756 19.4215C17.6453 19.3108 17.4951 19.2486 17.3385 19.2486H4.34894C4.19235 19.2486 4.04217 19.3108 3.93144 19.4215C3.82071 19.5323 3.75851 19.6824 3.75851 19.839V28.6955C3.75851 28.8521 3.82071 29.0023 3.93144 29.113C4.04217 29.2238 4.19235 29.286 4.34894 29.286ZM4.93937 20.4295H16.748V28.1051H4.93937V20.4295Z" fill="#4628A4"/>
<path d="M27.9663 29.2859H29.1472V30.4668H27.9663V29.2859Z" fill="#4628A4"/>
<path d="M32.6898 29.2859H33.8706V30.4668H32.6898V29.2859Z" fill="#4628A4"/>
<path d="M30.9185 33.419C30.6053 33.419 30.3049 33.2946 30.0835 33.0731C29.862 32.8516 29.7376 32.5513 29.7376 32.2381H28.5567C28.5567 32.8645 28.8055 33.4652 29.2485 33.9081C29.6914 34.351 30.2921 34.5998 30.9185 34.5998C31.5448 34.5998 32.1455 34.351 32.5884 33.9081C33.0314 33.4652 33.2802 32.8645 33.2802 32.2381H32.0993C32.0993 32.5513 31.9749 32.8516 31.7535 33.0731C31.532 33.2946 31.2316 33.419 30.9185 33.419Z" fill="#4628A4"/>
<path d="M13.5007 12.2413L9.36762 9.87958C9.27777 9.82771 9.17585 9.80043 9.07211 9.80048C8.96837 9.80053 8.86647 9.82791 8.77668 9.87987C8.68688 9.93183 8.61237 10.0065 8.56063 10.0965C8.50889 10.1864 8.48176 10.2883 8.48197 10.3921V15.1155C8.48176 15.2193 8.50889 15.3212 8.56063 15.4112C8.61237 15.5011 8.68688 15.5758 8.77668 15.6277C8.86647 15.6797 8.96837 15.7071 9.07211 15.7071C9.17585 15.7072 9.27777 15.6799 9.36762 15.628L13.5007 13.2663C13.591 13.2146 13.666 13.14 13.7182 13.05C13.7704 12.96 13.7979 12.8578 13.7979 12.7538C13.7979 12.6498 13.7704 12.5476 13.7182 12.4576C13.666 12.3676 13.591 12.293 13.5007 12.2413ZM9.66283 14.0976V11.41L12.0151 12.7538L9.66283 14.0976Z" fill="#4628A4"/>
<path d="M31.5089 18.6581C31.6212 18.6582 31.7312 18.6262 31.8259 18.566C31.9207 18.5057 31.9963 18.4197 32.0439 18.318C32.0915 18.2163 32.1091 18.1031 32.0947 17.9917C32.0802 17.8804 32.0343 17.7754 31.9623 17.6892L29.0102 14.1466C28.9577 14.0836 28.8926 14.0322 28.8191 13.9957C28.7456 13.9592 28.6653 13.9384 28.5833 13.9347C28.5012 13.9297 28.419 13.9425 28.3424 13.9722C28.2658 14.002 28.1965 14.048 28.1393 14.1071L27.2731 14.9738L26.0527 13.5509C25.9957 13.4889 25.9264 13.4393 25.8493 13.4055C25.7721 13.3716 25.6888 13.3541 25.6046 13.3541C25.5203 13.3541 25.437 13.3716 25.3598 13.4055C25.2827 13.4393 25.2134 13.4889 25.1564 13.5509L21.6138 17.6839C21.5405 17.7696 21.4933 17.8746 21.4777 17.9863C21.4622 18.0981 21.479 18.2119 21.5261 18.3144C21.5733 18.4169 21.6488 18.5038 21.7437 18.5647C21.8387 18.6256 21.9491 18.658 22.062 18.6581H31.5089ZM23.3456 17.4773L25.6046 14.8416L27.8636 17.4773H23.3456ZM28.5172 15.3995L30.2483 17.4773H29.4188L28.0436 15.8731L28.5172 15.3995Z" fill="#4628A4"/>
<path d="M36.2324 1.53558H1.98721C1.83062 1.53558 1.68044 1.59779 1.56971 1.70852C1.45898 1.81925 1.39677 1.96942 1.39677 2.12602V31.0573C1.39677 31.2139 1.45898 31.364 1.56971 31.4748C1.68044 31.5855 1.83062 31.6477 1.98721 31.6477H25.0442C25.1969 33.1538 25.9223 34.5438 27.0705 35.5304C28.2188 36.517 29.7021 37.0249 31.2141 36.9491C32.726 36.8733 34.1511 36.2196 35.1949 35.1232C36.2387 34.0267 36.8215 32.5711 36.8228 31.0573V2.12602C36.8228 1.96942 36.7606 1.81925 36.6499 1.70852C36.5391 1.59779 36.3889 1.53558 36.2324 1.53558ZM30.9185 35.7807C29.9842 35.7807 29.071 35.5037 28.2942 34.9847C27.5175 34.4657 26.912 33.728 26.5545 32.8649C26.197 32.0018 26.1035 31.052 26.2857 30.1358C26.468 29.2195 26.9179 28.3779 27.5785 27.7173C28.239 27.0567 29.0807 26.6068 29.9969 26.4246C30.9132 26.2423 31.8629 26.3358 32.726 26.6933C33.5891 27.0509 34.3269 27.6563 34.8459 28.433C35.3649 29.2098 35.6419 30.123 35.6419 31.0573C35.6405 32.3096 35.1424 33.5102 34.2569 34.3957C33.3714 35.2812 32.1708 35.7793 30.9185 35.7807ZM25.813 28.1051H20.2906V8.62079H33.2802V25.6495C31.9518 25.0661 30.4546 24.9941 29.0763 25.4473C27.6981 25.9006 26.5359 26.8471 25.813 28.1051ZM35.6419 27.53C35.306 27.0814 34.9085 26.6825 34.4611 26.345V8.03035C34.4611 7.87376 34.3988 7.72358 34.2881 7.61285C34.1774 7.50213 34.0272 7.43992 33.8706 7.43992H19.7002C19.5436 7.43992 19.3934 7.50213 19.2827 7.61285C19.172 7.72358 19.1098 7.87376 19.1098 8.03035V28.6955C19.1098 28.8521 19.172 29.0023 19.2827 29.113C19.3934 29.2238 19.5436 29.286 19.7002 29.286H25.2863C25.1651 29.6702 25.084 30.0659 25.0442 30.4668H2.57764V6.25905H35.6419V27.53ZM35.6419 5.07819H2.57764V2.71645H35.6419V5.07819Z" fill="#4628A4"/>
<path d="M6.12024 21.6103H15.5672V22.7912H6.12024V21.6103Z" fill="#4628A4"/>
<path d="M6.12024 23.972H15.5672V25.1529H6.12024V23.972Z" fill="#4628A4"/>
</svg>
